<?xml version="1.0" encoding="utf-8"?>
<!-- Generator: Adobe Illustrator 25.0.1, SVG Export Plug-In . SVG Version: 6.00 Build 0)  -->
<svg version="1.1" xmlns="http://www.w3.org/2000/svg" xmlns:xlink="http://www.w3.org/1999/xlink" x="0px" y="0px"
	viewBox="0 0 861.5 817.7" style="enableBackground:new 0 0 861.5 817.7;" xml:space="preserve">
	<style type="text/css">
		.st0 {
			fill: __BG__;
		}

		.st1 {
			fill: none;
			stroke: __LINE__;
			stroke-width: 4;
			stroke-miterlimit: 10;
		}

		.st2 {
			fill: none;
		}
	</style>
	<g id="BG">
		<circle id="CIRCLE" class="st0" cx="422.8" cy="416.2" r="326.2" />
	</g>
	<g id="LINES_1_">
		<path class="st1" d="M268.5,597.5c0,9,7.3,16.4,16.4,16.4c9,0,16.4-7.3,16.4-16.4c0-9-7.3-16.4-16.4-16.4
		C275.8,581.2,268.5,588.5,268.5,597.5z" />
		<path class="st1" d="M398.1,168.2c0,9,7.3,16.4,16.4,16.4c9,0,16.4-7.3,16.4-16.4c0-9-7.3-16.4-16.4-16.4
		C405.4,151.9,398.1,159.2,398.1,168.2z" />
		<g>
			<line class="st1" x1="456.3" y1="446" x2="530.5" y2="420.3" />
			<polyline class="st1" points="551.5,444.3 583.5,401.5 529.6,371.5 545.8,320.2 635.6,324.7 635.6,289.2 509.8,253.7 486.5,322.9 
			336.4,380.4 162,300.4 		" />
			<polyline class="st1" points="484.7,386.3 466.5,489.4 407.4,526.9 451.4,562 		" />
			<line class="st1" x1="407.4" y1="510.7" x2="457.7" y2="552.9" />
			<line class="st1" x1="422.7" y1="499" x2="470.3" y2="545.7" />
			<polyline class="st1" points="422.7,395.7 429,470.3 370.5,515.2 407.4,552.9 		" />
			<line class="st1" x1="515.7" y1="449.3" x2="533.8" y2="407.1" />
			<line class="st1" x1="522.7" y1="454" x2="541.8" y2="412.2" />
			<path id="SVGID_x5F_1_x5F_" class="st2" d="M559.6,450.5l25.2-36.2" />
			<text>
				<textPath xlink:href="#SVGID_x5F_1_x5F_" startOffset="0.391%">
				</textPath>
			</text>
			<line class="st1" x1="528.8" y1="295" x2="651.2" y2="314.8" />
			<path class="st1" d="M546.1,295c0,6.7,5.4,12.1,12.1,12.1c6.7,0,12.1-5.4,12.1-12.1s-5.4-12.1-12.1-12.1
			C551.5,282.9,546.1,288.3,546.1,295z" />
			<line class="st1" x1="505.3" y1="395.7" x2="546.1" y2="422.2" />
			<line class="st1" x1="356.5" y1="446" x2="407.4" y2="437.1" />
			<path class="st1" d="M336.4,380.4" />
			<line class="st1" x1="356.5" y1="446" x2="162" y2="300.4" />
		</g>
		<line class="st1" x1="215.8" y1="655.3" x2="579.6" y2="655.3" />
		<line class="st1" x1="253.1" y1="145" x2="253.1" y2="420.1" />
		<line class="st1" x1="472.5" y1="570" x2="696.4" y2="570" />
		<g>
			<path class="st1" d="M467.6,697.6c0,9,7.3,16.4,16.4,16.4c9,0,16.4-7.3,16.4-16.4c0-9-7.3-16.4-16.4-16.4
			C474.9,681.3,467.6,688.6,467.6,697.6z" />
			<polyline class="st1" points="500.3,697.6 500.3,593 531.6,615.6 		" />
			<line class="st1" x1="500.3" y1="608.5" x2="530.6" y2="631" />
		</g>
		<g>
			<path class="st1" d="M629.3,507c0,7.5,6,13.5,13.5,13.5c7.5,0,13.5-6,13.5-13.5c0-7.5-6.1-13.5-13.5-13.5
			C635.3,493.5,629.3,499.5,629.3,507z" />
			<path class="st1" d="M691,475.9c0,7.5,6,13.5,13.5,13.5c7.5,0,13.5-6,13.5-13.5c0-7.5-6.1-13.5-13.5-13.5
			C697,462.4,691,468.4,691,475.9z" />
			<polyline class="st1" points="656.3,510.9 656.3,415.4 718,415.4 718,477.3 		" />
			<line class="st1" x1="656.3" y1="429.1" x2="718" y2="429.1" />
		</g>
		<path class="st1" d="M115.3,397.3c0,0,54,20.4,50,73.9" />
		<path class="st1" d="M339.8,191.5c0,9,7.3,16.4,16.4,16.4c9,0,16.4-7.3,16.4-16.4c0-9-7.3-16.4-16.4-16.4
		C347.1,175.1,339.8,182.4,339.8,191.5z" />
		<path class="st1" d="M377.4,655.3c0,9,7.3,16.4,16.4,16.4c9,0,16.4-7.3,16.4-16.4s-7.3-16.4-16.4-16.4
		C384.7,638.9,377.4,646.2,377.4,655.3z" />
	</g>
</svg>